<?xml version="1.0" encoding="UTF-8" standalone="no"?>
<!-- Generator: Gravit.io -->
<svg xmlns="http://www.w3.org/2000/svg" xmlns:xlink="http://www.w3.org/1999/xlink" style="isolation:isolate" viewBox="0 0 299.838 259.626" width="299.838" height="259.626"><defs><clipPath id="_clipPath_bAWFkWUATfN6jv5U13G5ASacwfj86egN"><rect width="299.838" height="259.626"/></clipPath></defs><g clip-path="url(#_clipPath_bAWFkWUATfN6jv5U13G5ASacwfj86egN)"><g transform="matrix(1,0,0,1,0.601,192.617)"><text transform="matrix(1,0,0,1,0.804,9.282)" style="font-family:&quot;DejaVu Serif&quot;;font-weight:400;font-size:10px;font-style:normal;fill:#000000;stroke:none;">Kopf</text><text transform="matrix(1,0,0,1,1.468,26.743)" style="font-family:&quot;DejaVu Serif&quot;;font-weight:400;font-size:10px;font-style:normal;fill:#000000;stroke:none;">0.25</text></g><path d=" M 10.766 181.206 C 10.766 179.641 12.036 178.371 13.601 178.371 C 15.165 178.371 16.435 179.641 16.435 181.206 C 16.435 182.77 15.165 184.04 13.601 184.04 C 12.036 184.04 10.766 182.77 10.766 181.206 Z " fill="rgb(0,0,0)"/><path d=" M 10.766 253.806 C 10.766 252.241 12.036 250.971 13.601 250.971 C 15.165 250.971 16.435 252.241 16.435 253.806 C 16.435 255.37 15.165 256.64 13.601 256.64 C 12.036 256.64 10.766 255.37 10.766 253.806 Z " fill="rgb(74,134,232)"/><path d=" M 171.118 181.206 C 171.118 179.641 172.388 178.371 173.952 178.371 C 175.517 178.371 176.787 179.641 176.787 181.206 C 176.787 182.77 175.517 184.04 173.952 184.04 C 172.388 184.04 171.118 182.77 171.118 181.206 Z " fill="rgb(0,0,0)"/><line x1="150.469" y1="2.835" x2="230.645" y2="83.011" vector-effect="non-scaling-stroke" stroke-width="1.176" stroke="rgb(74,134,232)" stroke-linejoin="miter" stroke-linecap="square" stroke-miterlimit="3"/><line x1="150.469" y1="2.835" x2="70.293" y2="83.011" vector-effect="non-scaling-stroke" stroke-width="1.176" stroke="rgb(74,134,232)" stroke-linejoin="miter" stroke-linecap="square" stroke-miterlimit="3"/><line x1="230.645" y1="83.011" x2="287.338" y2="181.206" vector-effect="non-scaling-stroke" stroke-width="0.941" stroke="rgb(0,0,0)" stroke-linejoin="miter" stroke-linecap="square" stroke-miterlimit="3"/><line x1="230.645" y1="83.011" x2="173.952" y2="181.206" vector-effect="non-scaling-stroke" stroke-width="0.941" stroke="rgb(0,0,0)" stroke-linejoin="miter" stroke-linecap="square" stroke-miterlimit="3"/><line x1="70.293" y1="83.011" x2="126.986" y2="181.206" vector-effect="non-scaling-stroke" stroke-width="0.941" stroke="rgb(74,134,232)" stroke-linejoin="miter" stroke-linecap="square" stroke-miterlimit="3"/><line x1="70.293" y1="83.011" x2="13.601" y2="181.206" vector-effect="non-scaling-stroke" stroke-width="0.941" stroke="rgb(0,0,0)" stroke-linejoin="miter" stroke-linecap="square" stroke-miterlimit="3"/><g transform="matrix(1,0,0,1,61.293,37.102)"><text transform="matrix(1,0,0,1,0.048,9.282)" style="font-family:&quot;DejaVu Serif&quot;;font-weight:400;font-size:10px;font-style:normal;fill:#000000;stroke:none;">0.5</text></g><g transform="matrix(1,0,0,1,221.645,37.102)"><text transform="matrix(1,0,0,1,0.048,9.282)" style="font-family:&quot;DejaVu Serif&quot;;font-weight:400;font-size:10px;font-style:normal;fill:#000000;stroke:none;">0.5</text></g><g transform="matrix(1,0,0,1,4.601,126.288)"><text transform="matrix(1,0,0,1,0.048,9.282)" style="font-family:&quot;DejaVu Serif&quot;;font-weight:400;font-size:10px;font-style:normal;fill:#000000;stroke:none;">0.5</text></g><g transform="matrix(1,0,0,1,28.947,77.19)"><text transform="matrix(1,0,0,1,0.804,9.282)" style="font-family:&quot;DejaVu Serif&quot;;font-weight:400;font-size:10px;font-style:normal;fill:#000000;stroke:none;">Kopf</text></g><path d=" M 284.504 181.206 C 284.504 179.641 285.774 178.371 287.338 178.371 C 288.903 178.371 290.173 179.641 290.173 181.206 C 290.173 182.77 288.903 184.04 287.338 184.04 C 285.774 184.04 284.504 182.77 284.504 181.206 Z " fill="rgb(0,0,0)"/><path d=" M 67.459 83.011 C 67.459 81.446 68.729 80.176 70.293 80.176 C 71.858 80.176 73.128 81.446 73.128 83.011 C 73.128 84.575 71.858 85.845 70.293 85.845 C 68.729 85.845 67.459 84.575 67.459 83.011 Z " fill="rgb(0,0,0)"/><path d=" M 227.811 83.011 C 227.811 81.446 229.081 80.176 230.645 80.176 C 232.21 80.176 233.48 81.446 233.48 83.011 C 233.48 84.575 232.21 85.845 230.645 85.845 C 229.081 85.845 227.811 84.575 227.811 83.011 Z " fill="rgb(74,134,232)"/><path d=" M 147.635 2.835 C 147.635 1.27 148.905 0 150.469 0 C 152.034 0 153.304 1.27 153.304 2.835 C 153.304 4.399 152.034 5.669 150.469 5.669 C 148.905 5.669 147.635 4.399 147.635 2.835 Z " fill="rgb(74,134,232)"/><path d=" M 124.152 181.206 C 124.152 179.641 125.422 178.371 126.986 178.371 C 128.551 178.371 129.821 179.641 129.821 181.206 C 129.821 182.77 128.551 184.04 126.986 184.04 C 125.422 184.04 124.152 182.77 124.152 181.206 Z " fill="rgb(74,134,232)"/><g transform="matrix(1,0,0,1,274.838,192.617)"><text transform="matrix(1,0,0,1,0.226,9.282)" style="font-family:&quot;DejaVu Serif&quot;;font-weight:400;font-size:10px;font-style:normal;fill:#000000;stroke:none;">Zahl</text><text transform="matrix(1,0,0,1,0.367,26.743)" style="font-family:&quot;DejaVu Serif&quot;;font-weight:400;font-size:10px;font-style:normal;fill:#000000;stroke:none;">0.25</text></g><g transform="matrix(1,0,0,1,160.952,192.617)"><text transform="matrix(1,0,0,1,0.804,9.282)" style="font-family:&quot;DejaVu Serif&quot;;font-weight:400;font-size:10px;font-style:normal;fill:#000000;stroke:none;">Kopf</text><text transform="matrix(1,0,0,1,1.468,26.743)" style="font-family:&quot;DejaVu Serif&quot;;font-weight:400;font-size:10px;font-style:normal;fill:#000000;stroke:none;">0.25</text></g><g transform="matrix(1,0,0,1,246.492,77.19)"><text transform="matrix(1,0,0,1,0.226,9.282)" style="font-family:&quot;DejaVu Serif&quot;;font-weight:400;font-size:10px;font-style:normal;fill:#000000;stroke:none;">Zahl</text></g><g transform="matrix(1,0,0,1,114.486,192.617)"><text transform="matrix(1,0,0,1,0.226,9.282)" style="font-family:&quot;DejaVu Serif&quot;;font-weight:400;font-size:10px;font-style:normal;fill:#000000;stroke:none;">Zahl</text><text transform="matrix(1,0,0,1,0.367,26.743)" style="font-family:&quot;DejaVu Serif&quot;;font-weight:400;font-size:10px;font-style:normal;fill:#000000;stroke:none;">0.25</text></g><g transform="matrix(1,0,0,1,117.986,126.288)"><text transform="matrix(1,0,0,1,0.048,9.282)" style="font-family:&quot;DejaVu Serif&quot;;font-weight:400;font-size:10px;font-style:normal;fill:#000000;stroke:none;">0.5</text></g><g transform="matrix(1,0,0,1,164.952,126.288)"><text transform="matrix(1,0,0,1,0.048,9.282)" style="font-family:&quot;DejaVu Serif&quot;;font-weight:400;font-size:10px;font-style:normal;fill:#000000;stroke:none;">0.5</text></g><g transform="matrix(1,0,0,1,278.338,126.288)"><text transform="matrix(1,0,0,1,0.048,9.282)" style="font-family:&quot;DejaVu Serif&quot;;font-weight:400;font-size:10px;font-style:normal;fill:#000000;stroke:none;">0.5</text></g><g transform="matrix(1,0,0,1,28.947,247.985)"><text transform="matrix(1,0,0,1,0,9.282)" style="font-family:&quot;DejaVu Serif&quot;;font-weight:400;font-size:10px;font-style:normal;fill:#000000;stroke:none;">P</text><text transform="matrix(1,0,0,1,6.729,9.282)" style="font-family:&quot;DejaVu Serif&quot;;font-weight:400;font-size:7px;font-style:normal;fill:#000000;stroke:none;">(Mindestens 1 Mal Zahl) </text><text transform="matrix(1,0,0,1,96.095,9.282)" style="font-family:&quot;DejaVu Serif&quot;;font-weight:400;font-size:10px;font-style:normal;fill:#000000;stroke:none;">= 0.25 + 0.5 = 0.75</text></g></g></svg>